<?xml version="1.0" encoding="utf-8"?>
<!-- Generator: Adobe Illustrator 16.0.0, SVG Export Plug-In . SVG Version: 6.00 Build 0)  -->
<!DOCTYPE svg PUBLIC "-//W3C//DTD SVG 1.1//EN" "http://www.w3.org/Graphics/SVG/1.1/DTD/svg11.dtd">
<svg version="1.1" id="Capa_1" xmlns="http://www.w3.org/2000/svg" xmlns:xlink="http://www.w3.org/1999/xlink" x="0px" y="0px"
	 width="595.279px" height="841.89px" viewBox="0 0 595.279 841.89" enable-background="new 0 0 595.279 841.89"
	 xml:space="preserve">
<g>
	<linearGradient id="SVGID_1_" gradientUnits="userSpaceOnUse" x1="1.1243" y1="420.9448" x2="594.1565" y2="420.9448">
		<stop  offset="0" style="stop-color:#FF5404"/>
		<stop  offset="1" style="stop-color:#FFA424"/>
	</linearGradient>
	<path fill="url(#SVGID_1_)" d="M121.3,519.007c58.714,70.186,129.393,125.445,210.063,164.547
		c30.714,14.555,71.788,31.824,117.551,34.785c2.837,0.123,5.551,0.246,8.388,0.246c30.714,0,55.384-10.607,75.489-32.441
		c0.123-0.123,0.37-0.369,0.493-0.617c7.154-8.633,15.296-16.404,23.807-24.668c5.797-5.551,11.718-11.35,17.393-17.27
		c26.272-27.383,26.272-62.168-0.247-88.688l-74.133-74.133c-12.581-13.074-27.63-19.982-43.419-19.982
		c-15.788,0-30.96,6.908-43.912,19.859l-44.158,44.158c-4.07-2.344-8.265-4.439-12.212-6.414c-4.934-2.467-9.497-4.811-13.568-7.4
		c-40.211-25.533-76.723-58.838-111.63-101.64c-17.639-22.326-29.48-41.075-37.745-60.194c11.595-10.485,22.45-21.463,32.935-32.194
		c3.7-3.824,7.524-7.647,11.348-11.471c13.322-13.322,20.477-28.74,20.477-44.405c0-15.666-7.031-31.084-20.477-44.406
		l-36.758-36.758c-4.317-4.317-8.388-8.511-12.581-12.828c-8.142-8.388-16.652-17.022-25.04-24.793
		c-12.705-12.458-27.63-18.996-43.419-18.996c-15.665,0-30.714,6.538-43.912,19.119l-46.132,46.132
		c-16.775,16.775-26.273,37.128-28.247,60.688c-2.344,29.48,3.084,60.811,17.146,98.679C40.383,406.513,72.948,460.91,121.3,519.007
		z M31.748,251.834c1.48-16.405,7.771-30.097,19.613-41.938l45.885-45.886c7.154-6.907,15.049-10.484,22.696-10.484
		c7.524,0,15.172,3.577,22.203,10.731c8.265,7.647,16.035,15.665,24.423,24.176c4.194,4.317,8.511,8.634,12.828,13.075
		l36.758,36.758c7.647,7.648,11.595,15.419,11.595,23.066s-3.947,15.418-11.595,23.066c-3.823,3.824-7.647,7.771-11.471,11.595
		c-11.472,11.595-22.203,22.573-34.045,33.057c-0.246,0.247-0.37,0.37-0.616,0.617c-10.238,10.238-8.635,19.982-6.168,27.383
		c0.124,0.37,0.247,0.617,0.37,0.987c9.498,22.82,22.696,44.529,43.296,70.433c37.004,45.639,75.982,81.039,118.907,108.299
		c5.304,3.455,10.979,6.168,16.282,8.881c4.934,2.467,9.498,4.811,13.568,7.402c0.493,0.246,0.863,0.492,1.356,0.74
		c4.071,2.096,8.018,3.082,11.965,3.082c9.868,0,16.282-6.291,18.379-8.387l46.133-46.133c7.154-7.154,14.925-10.979,22.572-10.979
		c9.375,0,17.022,5.799,21.833,10.979l74.379,74.256c14.802,14.803,14.679,30.838-0.369,46.502
		c-5.181,5.551-10.608,10.855-16.406,16.406c-8.634,8.387-17.639,17.021-25.779,26.766c-14.186,15.297-31.084,22.451-52.917,22.451
		c-2.097,0-4.316-0.125-6.414-0.248c-40.458-2.59-78.079-18.379-106.326-31.824c-76.723-37.127-144.071-89.797-199.948-156.652
		C98.727,444.628,67.767,393.068,47.29,337.808C34.586,303.887,29.775,276.627,31.748,251.834z"/>
</g>
</svg>
